# xmcd CD database file
#
# Track frame offsets:
#	150
#	6046
#	24203
#	45937
#	70318
#	94399
#	115085
#	137804
#	160500
#	181624
#	207025
#	232794
#	238755
#	262241
#	292038
#	316287
#	334775
#	352480
#
# Disc length: 4741 seconds
#
# Revision: 0
# Processed by: cddbd v1.5.2PL0 Copyright (c) Steve Scherf et al.
# Submitted via: CDex 1.70beta2
#
DISCID=fa128312
DTITLE=Camilleri, Andrea - Die Farbe der Sonne
DYEAR=2010
DGENRE=Hoerbuch
TTITLE0=01 Die Farbe der Sonne
TTITLE1=02 Die Farbe der Sonne
TTITLE2=03 Die Farbe der Sonne
TTITLE3=04 Die Farbe der Sonne
TTITLE4=05 Die Farbe der Sonne
TTITLE5=06 Die Farbe der Sonne
TTITLE6=07 Die Farbe der Sonne
TTITLE7=08 Die Farbe der Sonne
TTITLE8=09 Die Farbe der Sonne
TTITLE9=10 Die Farbe der Sonne
TTITLE10=11 Die Farbe der Sonne
TTITLE11=12 Die Farbe der Sonne
TTITLE12=13 Die Farbe der Sonne
TTITLE13=14 Die Farbe der Sonne
TTITLE14=15 Die Farbe der Sonne
TTITLE15=16 Die Farbe der Sonne
TTITLE16=17 Die Farbe der Sonne
TTITLE17=18 Die Farbe der Sonne
EXTD=YEAR: 2010
EXTT0=
EXTT1=
EXTT2=
EXTT3=
EXTT4=
EXTT5=
EXTT6=
EXTT7=
EXTT8=
EXTT9=
EXTT10=
EXTT11=
EXTT12=
EXTT13=
EXTT14=
EXTT15=
EXTT16=
EXTT17=
PLAYORDER=
